<?xml version="1.0" standalone="no"?>
<!DOCTYPE svg PUBLIC "-//W3C//DTD SVG 20010904//EN"
 "http://www.w3.org/TR/2001/REC-SVG-20010904/DTD/svg10.dtd">
<svg version="1.0" xmlns="http://www.w3.org/2000/svg"
 width="392.000000pt" height="233.000000pt" viewBox="0 0 392.000000 233.000000"
 preserveAspectRatio="xMidYMid meet">

<g transform="translate(0.000000,233.000000) scale(0.100000,-0.100000)"
fill="#000000" stroke="none">
<path d="M130 1140 l0 -980 80 0 80 0 0 470 0 470 560 0 560 0 0 -470 0 -470
85 0 85 0 0 980 0 980 -85 0 -85 0 0 -440 0 -440 -560 0 -560 0 0 440 0 440
-80 0 -80 0 0 -980z"/>
<path d="M2160 2050 l0 -70 335 0 335 0 0 -910 0 -910 85 0 85 0 0 910 0 910
335 0 335 0 0 70 0 70 -755 0 -755 0 0 -70z"/>
<path d="M2220 290 c0 -80 4 -130 10 -130 6 0 10 50 10 130 0 80 -4 130 -10
130 -6 0 -10 -50 -10 -130z"/>
<path d="M2410 290 c0 -80 4 -130 10 -130 6 0 10 29 10 68 0 72 16 102 53 102
33 0 47 -29 47 -101 0 -39 4 -69 10 -69 13 0 13 120 1 153 -12 32 -55 43 -87
22 l-24 -15 0 50 c0 27 -4 50 -10 50 -6 0 -10 -50 -10 -130z"/>
<path d="M3650 270 c0 -80 4 -130 10 -130 6 0 10 18 10 39 0 49 15 60 39 29
50 -62 60 -72 67 -66 4 4 -10 27 -30 52 -20 24 -36 48 -36 53 0 5 13 22 30 38
16 16 27 31 25 34 -3 2 -26 -15 -50 -39 l-45 -44 0 82 c0 48 -4 82 -10 82 -6
0 -10 -50 -10 -130z"/>
<path d="M2310 366 c0 -15 -7 -26 -17 -29 -17 -4 -17 -5 0 -6 14 -1 17 -11 17
-70 0 -38 3 -76 6 -85 7 -17 54 -22 54 -6 0 5 -3 9 -7 9 -29 -5 -33 4 -33 75
0 69 2 75 23 79 l22 4 -22 2 c-17 1 -23 7 -23 26 0 14 -4 25 -10 25 -5 0 -10
-11 -10 -24z"/>
<path d="M1895 338 c-33 -19 -44 -41 -45 -84 0 -59 30 -94 80 -94 23 0 43 6
51 17 13 15 12 16 -11 9 -59 -19 -100 0 -100 46 0 16 9 18 66 18 l66 0 -6 28
c-7 28 -49 72 -69 72 -7 0 -21 -6 -32 -12z m62 -20 c30 -39 24 -48 -32 -48
-59 0 -67 10 -38 42 19 21 56 24 70 6z"/>
<path d="M2053 326 c-15 -13 -25 -27 -21 -31 3 -4 16 3 27 14 25 25 54 27 75
5 24 -24 20 -44 -9 -44 -14 0 -41 -7 -60 -14 -28 -12 -35 -20 -35 -43 0 -16 5
-34 12 -41 15 -15 63 -16 89 -2 13 7 19 7 19 0 0 -5 5 -10 10 -10 6 0 10 30
10 70 0 62 -3 74 -25 95 -31 31 -56 32 -92 1z m97 -93 c0 -26 -12 -40 -41 -51
-30 -12 -59 1 -59 26 0 28 21 42 62 42 30 0 38 -4 38 -17z"/>
<path d="M3212 314 c-12 -8 -22 -10 -22 -5 0 6 -4 11 -10 11 -6 0 -10 -37 -10
-90 0 -53 4 -90 10 -90 6 0 10 28 10 65 0 68 20 105 55 105 8 0 15 5 15 10 0
15 -22 12 -48 -6z"/>
<path d="M3312 320 c-23 -10 -39 -36 -28 -47 4 -4 13 3 22 15 25 36 75 27 88
-14 6 -19 2 -22 -39 -26 -25 -3 -52 -11 -60 -18 -18 -15 -20 -61 -3 -78 16
-16 70 -15 87 1 11 10 14 10 18 0 13 -34 20 -5 16 65 -6 101 -33 129 -101 102z
m88 -107 c0 -45 -78 -73 -99 -36 -15 28 14 53 61 53 29 0 38 -4 38 -17z"/>
<path d="M3503 320 c-75 -30 -49 -180 31 -180 34 0 66 25 66 51 0 9 -7 5 -19
-10 -22 -29 -69 -32 -88 -5 -7 10 -13 37 -13 59 0 72 59 100 99 48 19 -27 20
-27 21 -6 0 23 -34 53 -60 52 -8 0 -25 -4 -37 -9z"/>
</g>
</svg>
